<svg width="30" height="28" viewBox="0 0 30 28" fill="none" xmlns="http://www.w3.org/2000/svg">
<path d="M8.42697 6.48421L12.6217 1.14211C12.9213 0.749123 13.2772 0.460526 13.6891 0.276316C14.1011 0.0921053 14.5318 0 14.9813 0C15.4307 0 15.8614 0.0921053 16.2734 0.276316C16.6854 0.460526 17.0412 0.749123 17.3408 1.14211L21.5356 6.48421L27.9026 8.58421C28.5518 8.7807 29.0637 9.14298 29.4382 9.67105C29.8127 10.1991 30 10.7825 30 11.4211C30 11.7158 29.9563 12.0105 29.8689 12.3053C29.7815 12.6 29.638 12.8825 29.4382 13.1526L25.3184 18.9L25.4682 24.9421C25.4931 25.8018 25.206 26.5263 24.6067 27.1158C24.0075 27.7053 23.3084 28 22.5094 28C22.4594 28 22.1848 27.9632 21.6854 27.8895L14.9813 26.0474L8.27715 27.8895C8.15231 27.9386 8.01498 27.9693 7.86517 27.9816C7.71536 27.9939 7.57803 28 7.45318 28C6.65418 28 5.95506 27.7053 5.3558 27.1158C4.75655 26.5263 4.46941 25.8018 4.49438 24.9421L4.64419 18.8632L0.561798 13.1526C0.362047 12.8825 0.218477 12.6 0.131086 12.3053C0.0436954 12.0105 0 11.7158 0 11.4211C0 10.807 0.181024 10.236 0.543071 9.70789C0.905119 9.17982 1.41074 8.80526 2.05993 8.58421L8.42697 6.48421Z" fill="#FFCC4D"/>
</svg>
