<svg width="20" height="35" viewBox="0 0 20 35" fill="none" xmlns="http://www.w3.org/2000/svg">
<path d="M3.96313 0.692613L19.4931 16.2071C19.6774 16.3918 19.8077 16.5919 19.8839 16.8074C19.9613 17.0229 20 17.2537 20 17.5C20 17.7463 19.9613 17.9771 19.8839 18.1926C19.8077 18.4081 19.6774 18.6082 19.4931 18.7929L3.96313 34.3536C3.53303 34.7845 2.99539 35 2.35023 35C1.70507 35 1.15207 34.7691 0.691244 34.3074C0.230413 33.8456 -1.48011e-07 33.3069 -2.01834e-07 32.6913C-2.55656e-07 32.0756 0.230413 31.5369 0.691244 31.0752L14.2396 17.5L0.691241 3.9248C0.261134 3.49384 0.0460787 2.96315 0.0460787 2.33272C0.0460786 1.70106 0.276494 1.15436 0.737323 0.692613C1.19815 0.230871 1.73579 1.59671e-06 2.35023 1.54299e-06C2.96467 1.48928e-06 3.5023 0.230871 3.96313 0.692613Z" fill="black"/>
</svg>
