<svg width="321" height="205" viewBox="0 0 321 205" fill="none" xmlns="http://www.w3.org/2000/svg">
<rect y="2" width="319" height="203" rx="10" fill="#626262"/>
<g clip-path="url(#clip0_1643_8272)">
<mask id="mask0_1643_8272" style="mask-type:luminance" maskUnits="userSpaceOnUse" x="0" y="0" width="321" height="205">
<path d="M310.769 0H10.2313C4.58071 0 0 4.5879 0 10.2474V194.753C0 200.412 4.58071 205 10.2313 205H310.769C316.419 205 321 200.412 321 194.753V10.2474C321 4.5879 316.419 0 310.769 0Z" fill="white"/>
</mask>
<g mask="url(#mask0_1643_8272)">
<path d="M209.672 165.17C209.672 165.17 233.777 202.804 240.466 205.486L121.385 212.003C121.385 212.003 122.501 163.525 122.952 159.549L209.666 165.17H209.672Z" fill="white"/>
<path d="M242.365 186.42C242.365 186.42 225.709 200.52 219.418 209.444L269.902 214.357L242.365 186.42Z" fill="#EC6E3F"/>
<path d="M31.5537 117.019C31.5537 117.019 9.69964 148.581 8.40173 172.314C7.10381 196.047 8.98053 204.994 8.98053 204.994H62.4932L52.373 133.79L31.5596 117.019H31.5537Z" fill="white"/>
<path d="M67.094 158.178C67.094 158.178 66.7491 197.997 88.6733 205L49.1103 211.084C49.1103 211.084 44.0648 191.989 42.4453 172.156L67.0998 158.178H67.094Z" fill="#D9D9D9"/>
<path d="M240.471 50.2004C228.439 46.3591 214.104 44.983 200.195 51.4945L191.601 90.3174C191.601 90.3174 208.883 73.014 247.247 67.6209C245.815 61.1856 245.259 54.1295 240.471 50.2062V50.2004Z" fill="#EC6E3F"/>
<path d="M240.472 50.2004C245.26 54.1237 246.353 73.5058 247.78 79.9412C254.649 78.975 261.659 66.0692 269.903 66.034C269.903 66.034 257.497 55.6461 240.466 50.2062L240.472 50.2004Z" fill="#D9D9D9"/>
<path d="M81.3536 117.019C81.3536 117.019 107.914 86.2184 127.424 85.5509L108.388 77.8624C108.388 77.8624 73.4492 90.9966 61.0605 103.001L81.3536 117.019Z" fill="white"/>
<path d="M62.4932 84.2275C62.4932 84.2275 105.874 47.7293 142.18 55.2479L158.317 97.4378C158.317 97.4378 107.283 88.2327 62.4932 84.2216V84.2275Z" fill="#D9D9D9"/>
<path d="M59.2482 140.893C59.2482 140.893 63.5629 151.292 69.7309 172.753C69.7309 172.753 59.0904 187.796 40.3583 196.217L22.6201 158.173L54.9627 134.112L59.2541 140.893H59.2482Z" fill="white"/>
<path d="M262.787 98.6324C262.787 98.6324 239.845 134.984 238.816 185.056C238.816 185.056 256.087 224.195 296.93 211.998C296.93 211.998 310.506 153.16 320.31 148.698L327.846 131.207L279.905 94.3987L262.787 98.6265V98.6324Z" fill="white"/>
<path d="M303.537 148.019L304.221 184.458C304.221 184.458 318.732 181.554 324.427 181.589C330.121 181.624 327.853 181.589 327.853 181.589V131.213L303.543 148.019H303.537Z" fill="white"/>
<path d="M204.755 58.8375V80.5853C204.755 80.5853 216.992 84.7955 229.883 90.7858C231.497 83.1383 235.168 76.0882 237.776 68.7745C226.176 63.8616 209.28 57.3267 204.755 58.8375Z" fill="#D9D9D9"/>
<path d="M249.171 73.7986C249.171 73.7986 244.313 71.5442 237.771 68.7745C235.163 76.0823 231.492 83.1384 229.878 90.7858C242.916 96.8464 256.625 104.722 258.993 111.895L327.841 131.213C327.841 131.213 304.613 81.815 249.165 73.7986H249.171Z" fill="white"/>
<path d="M236.139 68.7745C236.139 68.7745 217.307 86.3824 228.842 110.806C228.842 110.806 249.773 115.825 253.468 123.173C253.468 123.173 269.224 91.8457 267.125 83.4663C267.125 83.4663 244.791 66.7777 236.139 68.7686V68.7745Z" fill="white"/>
<path d="M81.1435 71.0523C81.1435 71.0523 93.6667 99.4346 104.582 99.9909C104.582 99.9909 120.952 95.5464 129.85 95.8919C129.85 95.8919 135.475 53.4678 121.607 54.0007C121.607 54.0007 93.8888 58.5271 81.1377 71.0523H81.1435Z" fill="#EC6E3F"/>
<path d="M72.795 131.465C72.795 131.465 67.4104 162.008 69.7256 169.673C69.7256 169.673 75.9228 184.523 75.9228 188.645C75.9228 188.645 54.7645 184.628 43.5334 199.367C43.5334 199.367 31.7294 171.875 38.0436 155.655C44.3578 139.434 42.8201 138.521 42.8201 138.521L72.795 131.465Z" fill="white"/>
<path d="M201.522 97.4437C201.522 97.4437 233.573 66.2155 247.78 71.591C247.78 71.591 245.839 52.4255 240.472 50.2004L204.756 58.8374L201.522 97.4437Z" fill="#EC6E3F"/>
<path d="M246.207 166.224C246.207 166.224 256.198 156.908 262.998 158.863L257.566 165.58C257.566 165.58 247.505 164.461 246.207 168.391C246.207 168.391 251.919 178.533 253.638 178.041C253.638 178.041 253.415 184.587 253.994 187.164C253.994 187.164 244.739 172.132 243.868 168.391L246.207 166.224Z" fill="#EC6E3F"/>
<path d="M53.3198 123.22C53.3198 123.22 53.4484 129.328 51.9225 135.113C50.5251 140.406 44.4156 142.737 39.8495 139.727C36.3241 137.408 31.0155 132.56 31.6001 125.047C31.6001 125.047 36.4644 115.175 34.7455 112.727L53.3139 123.22H53.3198Z" fill="#D9D9D9"/>
<path d="M275.322 106.895C275.322 106.895 275.322 121.944 279.006 125.352C282.689 128.76 295.452 118.307 296.866 111.89C298.281 105.472 275.322 106.895 275.322 106.895Z" fill="#D9D9D9"/>
<path d="M300.947 187.72C300.947 187.72 319.288 178.579 327.847 179.756C327.847 179.756 322.708 212.103 311.412 214.351L300.947 187.714V187.72Z" fill="#D9D9D9"/>
<path d="M137.58 55.2479L168.431 91.4124L194.635 58.0294L200.195 51.4945C200.195 51.4945 214.402 55.7515 209.117 76.58C209.117 76.58 204.188 143.364 213.648 161.446C213.648 161.446 158.317 201.106 121.607 165.422C121.607 165.422 120.11 128.496 124.969 90.3174C124.969 90.3174 133.318 55.9506 121.607 54.0007C121.607 54.0007 132.072 53.3039 137.58 54.4809V55.2538V55.2479Z" fill="#EC6E3F"/>
<path d="M157.347 80.5736C157.347 80.5736 159.095 91.67 168.432 91.4182C177.768 91.1664 182.2 79.9412 182.2 79.9412L157.353 80.5736H157.347Z" fill="#D9D9D9"/>
<path d="M148.547 233.341C166.325 233.341 180.738 218.906 180.738 201.1C180.738 183.294 166.325 168.859 148.547 168.859C130.769 168.859 116.356 183.294 116.356 201.1C116.356 218.906 130.769 233.341 148.547 233.341Z" fill="#505050"/>
<path d="M253.468 181.326C253.468 193.4 260.098 203.917 269.908 209.439C263.939 197.745 257.858 179.926 255.058 171.318C254.029 174.469 253.468 177.83 253.468 181.326Z" fill="#D9D9D9"/>
<path d="M285.658 149.085C271.369 149.085 259.261 158.413 255.058 171.318C257.858 179.926 263.938 197.745 269.908 209.439C274.567 212.062 279.934 213.567 285.658 213.567C303.437 213.567 317.849 199.133 317.849 181.326C317.849 163.519 303.437 149.085 285.658 149.085Z" fill="#505050"/>
<path d="M269.903 205.48C273.716 205.48 276.807 201.681 276.807 196.995C276.807 192.309 273.716 188.511 269.903 188.511C266.089 188.511 262.998 192.309 262.998 196.995C262.998 201.681 266.089 205.48 269.903 205.48Z" fill="#D9D9D9"/>
<path d="M106.061 209.439C106.061 209.439 35.3599 212.583 22.6146 174L5.08691 180.752C5.08691 180.752 13.88 204.865 35.2137 217.578L106.055 209.439H106.061Z" fill="#D9D9D9"/>
<path d="M14.3359 194.138C21.4202 194.138 27.1631 187.164 27.1631 178.562C27.1631 169.959 21.4202 162.986 14.3359 162.986C7.25169 162.986 1.50879 169.959 1.50879 178.562C1.50879 187.164 7.25169 194.138 14.3359 194.138Z" fill="#D9D9D9"/>
<path d="M84.4237 114.571C84.4237 114.571 59.2664 133.497 35.7227 126.722C41.499 135.365 51.3327 141.056 62.4936 141.056C75.4026 141.056 86.5343 133.438 91.6674 122.453C88.8962 120.515 86.2829 117.95 84.4295 114.571H84.4237Z" fill="#D9D9D9"/>
<path d="M84.4234 114.571C86.2768 117.95 88.8901 120.509 91.6614 122.453C93.5965 118.313 94.684 113.693 94.684 108.815C94.684 91.0083 80.2724 76.5742 62.4934 76.5742C44.7143 76.5742 30.3027 91.0083 30.3027 108.815C30.3027 115.444 32.3022 121.598 35.7224 126.722C59.2661 133.497 84.4234 114.571 84.4234 114.571Z" fill="#505050"/>
<path d="M48.3181 137.425C51.6921 136.444 53.4687 132.341 52.2864 128.26C51.1042 124.179 47.4106 121.665 44.0367 122.646C40.6628 123.626 38.8862 127.729 40.0684 131.811C41.2507 135.892 44.9442 138.405 48.3181 137.425Z" fill="#D9D9D9"/>
<path d="M42.4396 94.9023C50.6927 94.9023 57.3832 88.2013 57.3832 79.9353C57.3832 71.6692 50.6927 64.9683 42.4396 64.9683C34.1866 64.9683 27.4961 71.6692 27.4961 79.9353C27.4961 88.2013 34.1866 94.9023 42.4396 94.9023Z" fill="#505050"/>
<path d="M195.646 51.4945C190.49 39.1274 167.525 58.6149 167.525 58.6149C151.663 43.6772 145.01 53.9948 145.01 53.9948L137.778 51.7346C137.655 52.8881 137.585 54.0593 137.585 55.2479C137.585 73.0549 151.996 87.4891 169.776 87.4891C187.555 87.4891 201.966 73.0549 201.966 55.2479C201.966 53.4737 201.82 51.7346 201.545 50.0423L195.652 51.4886L195.646 51.4945Z" fill="#D9D9D9"/>
<path d="M167.519 58.6149C167.519 58.6149 190.484 39.1274 195.641 51.4945L201.534 50.0481C199.049 34.7181 185.772 23.0127 169.764 23.0127C153.757 23.0127 139.515 35.5847 137.767 51.7404L144.999 54.0007C144.999 54.0007 151.652 43.6831 167.513 58.6208L167.519 58.6149Z" fill="#505050"/>
<path d="M300.947 85.6797L293.171 97.4437C275.258 100.846 261.016 91.8867 253.538 85.5626C254.614 102.392 268.581 115.713 285.653 115.713C296.65 115.713 306.349 110.186 312.161 101.759C298.907 97.4847 300.941 85.6797 300.941 85.6797H300.947Z" fill="#D9D9D9"/>
<path d="M285.658 51.231C267.879 51.231 253.468 65.6651 253.468 83.4721C253.468 84.1748 253.497 84.8716 253.544 85.5626C261.021 91.8808 275.263 100.846 293.177 97.4437L300.953 85.6797C300.953 85.6797 298.918 97.4847 312.172 101.759C315.756 96.5595 317.855 90.2647 317.855 83.4721C317.855 65.6651 303.443 51.231 285.664 51.231H285.658Z" fill="#505050"/>
<path d="M313.321 103.123C315.243 99.1076 314.472 94.7338 311.598 93.3541C308.724 91.9744 304.836 94.1113 302.914 98.127C300.993 102.143 301.764 106.517 304.638 107.896C307.512 109.276 311.4 107.139 313.321 103.123Z" fill="#D9D9D9"/>
<path d="M313.383 171.318C320.251 171.318 325.818 165.742 325.818 158.863C325.818 151.985 320.251 146.409 313.383 146.409C306.515 146.409 300.947 151.985 300.947 158.863C300.947 165.742 306.515 171.318 313.383 171.318Z" fill="#505050"/>
<path d="M345.825 171.318C345.825 171.318 331.641 146.122 313.383 146.408V171.318C313.383 171.318 338.908 179.241 339.774 190.378L345.825 171.318Z" fill="#505050"/>
<path d="M195.558 62.1283C189.554 61.6716 184.982 64.1192 181.79 66.8831C184.854 67.088 187.28 68.9677 187.502 71.3217C193.465 67.8727 195.558 62.1225 195.558 62.1225V62.1283Z" fill="white"/>
<path d="M181.79 66.8831C178.049 70.1271 176.201 73.822 176.201 73.822C180.972 74.0855 184.667 72.9612 187.502 71.3275C187.28 68.9735 184.854 67.088 181.79 66.8889V66.8831Z" fill="#EC6E3F"/>
<path d="M161.597 73.3477C161.597 73.3477 148.524 71.3626 142.976 62.8661L161.597 73.3477Z" fill="#505050"/>
<path d="M176.207 73.822C176.207 73.822 187.508 61.086 195.565 62.1283C195.565 62.1283 181.34 60.1784 176.207 73.822Z" fill="#505050"/>
<path d="M77.2617 134.428C77.2617 134.428 74.3618 129.093 62.2012 128.496L77.2617 134.428Z" fill="#505050"/>
<path d="M272.674 97.4437C272.674 97.4437 280.97 105.384 291.95 101.759L272.674 97.4437Z" fill="#505050"/>
<path d="M253.755 87.6121C253.755 87.6121 256.444 97.0455 264.846 96.2608L253.755 87.6121Z" fill="#505050"/>
<path d="M86.8668 82.1604C86.8668 82.1604 124.43 64.2012 141.859 71.3275C141.859 71.3275 139.602 66.7601 139.14 65.2084C139.14 65.2084 115.053 60.2604 84.4873 77.8683C84.4873 77.8683 86.4926 82.0902 86.8668 82.1604Z" fill="white"/>
<path d="M201.691 59.4464C201.691 59.4464 219.02 47.4365 231.684 47.9752C231.684 47.9752 213.419 43.6186 201.96 53.2687L201.691 59.4406V59.4464Z" fill="white"/>
<path d="M137.579 59.4464C137.579 59.4464 107.961 53.0872 81.1436 71.0523C81.1436 71.0523 99.3202 53.4151 130.979 53.9948L137.474 54.8615L137.579 59.4523V59.4464Z" fill="white"/>
<path d="M179.346 126.751C182.913 124.011 185.07 120.029 184.824 115.719C184.398 108.089 176.645 102.321 167.513 102.831C158.375 103.34 151.312 109.94 151.739 117.57C151.979 121.885 154.569 125.603 158.428 127.934C153.195 131.119 149.903 136.36 150.219 142.105C150.716 151.064 159.825 157.845 170.559 157.241C181.293 156.638 189.589 148.891 189.092 139.926C188.771 134.176 184.906 129.333 179.346 126.751Z" fill="white"/>
<path d="M180.662 117.763C180.662 122.119 175.786 125.65 169.77 125.65C163.754 125.65 158.878 122.119 158.878 117.763C158.878 113.406 163.754 109.875 169.77 109.875C175.786 109.875 180.662 113.406 180.662 117.763Z" fill="#EC6E3F"/>
<path d="M185.883 141.209C185.883 147.381 179.493 152.381 171.618 152.381C163.737 152.381 157.353 147.381 157.353 141.209C157.353 135.037 163.743 130.036 171.618 130.036C179.499 130.036 185.883 135.037 185.883 141.209Z" fill="#EC6E3F"/>
<path d="M251.287 139.903C251.287 139.903 275.111 121.294 280.905 149.085C280.905 149.085 274.702 150.818 272.597 151.848C272.597 151.848 275.316 126.663 253.462 141.572L251.287 139.897V139.903Z" fill="#EC6E3F"/>
</g>
</g>
<defs>
<clipPath id="clip0_1643_8272">
<rect width="321" height="205" fill="white"/>
</clipPath>
</defs>
</svg>
