<svg width="320" height="213" viewBox="0 0 320 213" fill="none" xmlns="http://www.w3.org/2000/svg">
<path d="M0.5 20C0.5 14.4772 4.97715 10 10.5 10H309.5C315.023 10 319.5 14.4772 319.5 20V203C319.5 208.523 315.023 213 309.5 213H10.5C4.97716 213 0.5 208.523 0.5 203V20Z" fill="#626262"/>
<mask id="mask0_1643_8458" style="mask-type:luminance" maskUnits="userSpaceOnUse" x="0" y="0" width="319" height="205">
<path d="M307.952 0H11.0478C4.94629 0 0 4.95361 0 11.0642V193.936C0 200.046 4.94629 205 11.0478 205H307.952C314.054 205 319 200.046 319 193.936V11.0642C319 4.95361 314.054 0 307.952 0Z" fill="white"/>
</mask>
<g mask="url(#mask0_1643_8458)">
<path d="M94.7485 17.8605C89.2158 15.5017 83.6831 13.9719 81.7476 16.1673C81.7476 16.1673 56.7602 7.31006 48.2426 31.2601C48.2426 31.2601 59.9317 50.2824 45.415 57.8317C50.9827 67.372 61.3134 73.7887 73.1425 73.7887C90.8715 73.7887 105.242 59.3964 105.242 41.6412C105.242 32.2176 101.196 23.7458 94.7485 17.8663V17.8605Z" fill="#D9D9D9"/>
<path d="M48.243 31.26C56.7606 7.30999 81.748 16.1672 81.748 16.1672C83.6836 13.9719 89.2162 15.4957 94.7489 17.8604C89.0472 12.6582 81.4623 9.48779 73.1429 9.48779C55.4139 9.48779 41.043 23.88 41.043 41.6353C41.043 47.544 42.6404 53.0731 45.4155 57.8316C59.9322 50.2823 48.243 31.26 48.243 31.26Z" fill="#505050"/>
<path d="M228.513 96.1271C228.513 96.1271 234.226 118.384 228.787 125.857C228.787 125.857 269.276 95.9111 292.509 108.324C292.509 108.324 292.468 78.0857 287.314 73.0178L228.519 96.1213L228.513 96.1271Z" fill="#505050"/>
<path d="M42.9148 182.299C42.9148 182.299 38.9154 205.251 28.5205 216.864L122.314 212.8C122.314 212.8 111.884 185.633 113.184 178.825L42.9148 182.299Z" fill="white"/>
<path d="M63.9551 69.7599V84.6426H82.3312V66.502L63.9551 69.7599Z" fill="#D9D9D9"/>
<path d="M254.724 107.828L258.152 122.313L276.038 118.063L271.858 100.413L254.724 107.828Z" fill="#D9D9D9"/>
<path d="M49.8174 73.7827C49.8174 73.7827 94.2828 54.5153 102.614 69.865L99.7105 94.8485L56.7784 91.9409L49.8174 73.7769V73.7827Z" fill="#EC6E3F"/>
<path d="M46.255 81.6591C64.0948 78.0742 95.3844 71.6166 112.839 78.4712C112.839 78.4712 127.799 121.426 115.51 184.361C115.51 184.361 66.2868 193.148 41.0429 187.525C41.0429 187.525 46.2725 129.162 41.0429 118.962L22.7309 133.243C19.0697 136.098 18.7665 141.54 22.0955 144.786L41.0429 163.26L21.4192 177.675L-20.0088 137.593L24.1534 93.4823C30.1992 87.4452 37.8831 83.3348 46.255 81.6533V81.6591Z" fill="#EC6E3F"/>
<path d="M131.443 57.0784L150.111 84.9753C154.477 91.5029 152.361 100.413 145.476 104.179C138.591 107.944 128.965 110.385 117.049 105.954C92.4753 96.8102 113.889 104.897 113.889 104.897L112.227 78.1733L123.695 83.7142L113.189 69.6956L131.443 57.0784Z" fill="#EC6E3F"/>
<path d="M50.4881 183.159C53.4233 175.242 50.5908 166.886 44.1615 164.495C37.7322 162.104 30.1407 166.584 27.2054 174.501C24.2701 182.418 27.1026 190.774 33.532 193.165C39.9613 195.556 47.5528 191.076 50.4881 183.159Z" fill="#D9D9D9"/>
<path d="M126.015 55.3268C126.015 62.8879 119.666 69.0184 111.831 69.0184C103.995 69.0184 97.6465 62.8879 97.6465 55.3268C97.6465 47.7658 103.995 41.6353 111.831 41.6353C119.666 41.6353 126.015 47.7658 126.015 55.3268Z" fill="#D9D9D9"/>
<path d="M87.8926 49.7043L91.0466 53.949L103.202 46.3588L98.4274 41.1682L87.8926 49.7043Z" fill="#EC6E3F"/>
<path d="M103.203 53.2309C107.221 53.2309 110.478 50.1359 110.478 46.318C110.478 42.5001 107.221 39.405 103.203 39.405C99.1843 39.405 95.9268 42.5001 95.9268 46.318C95.9268 50.1359 99.1843 53.2309 103.203 53.2309Z" fill="#EC6E3F"/>
<path d="M101.558 53.2309C105.576 53.2309 108.834 50.1359 108.834 46.318C108.834 42.5001 105.576 39.405 101.558 39.405C97.5397 39.405 94.2822 42.5001 94.2822 46.318C94.2822 50.1359 97.5397 53.2309 101.558 53.2309Z" fill="#EC6E3F"/>
<path d="M87.8926 49.7043L87.3096 52.828L91.0466 53.949L90.4869 49.2197L87.8926 49.7043Z" fill="#EC6E3F"/>
<path d="M87.3096 52.8281L94.8944 52.2092L93.1862 56.8217L87.3096 52.8281Z" fill="#D9D9D9"/>
<path d="M113.189 69.6958C113.189 69.6958 127.042 56.664 131.443 57.0785L129.589 77.1926L113.189 69.6958Z" fill="#EC6E3F"/>
<path d="M41.0427 163.26C41.0427 163.26 33.5861 177.109 24.3573 182.3L21.4189 177.675L27.7562 164.293L41.0427 163.26Z" fill="#EC6E3F"/>
<path d="M94.9293 187.286L89.9447 187.829C93.1512 174.441 93.7633 150.257 90.7375 122.944C88.4405 102.188 85.1291 85.2614 85.0941 85.0921L84.9717 84.479L85.1699 83.8893C87.9858 75.5576 87.6535 62.917 87.6068 63.9329L92.2125 64.1139C92.23 64.4759 92.6789 75.8145 89.7873 84.7885C91.1806 92.04 102.648 155.068 94.9293 187.274V187.286Z" fill="white"/>
<path d="M57.9443 27.1379C57.9443 27.1379 98.4512 22.3269 112.869 23.5939C112.869 23.5939 113.854 33.3911 102.899 36.3279C91.9449 39.2648 88.6334 28.9304 88.6334 28.9304C88.6334 28.9304 85.9342 36.7775 78.7749 37.8577C71.6215 38.9436 60.941 34.8683 57.9443 27.1379Z" fill="#505050"/>
<path d="M256.508 115.36C256.508 115.36 264.565 117.707 274.453 111.36L276.038 118.063L258.152 122.313L256.508 115.36Z" fill="white"/>
<path d="M228.787 125.858C228.787 125.858 270.908 111.36 305.323 116.837C305.323 116.837 308.652 212.275 302.612 220.344L222.082 224.781C222.082 224.781 228.239 145.493 228.781 125.863L228.787 125.858Z" fill="white"/>
<path d="M228.787 125.857L203.345 160.802C202.441 162.045 200.604 162.086 199.648 160.883L184.642 142.112L160.08 150.981L187.86 187.829C193.119 192.914 208.609 190.176 214.171 185.417L239.397 163.844L228.787 125.852V125.857Z" fill="white"/>
<path d="M285.704 160.662L318.317 163.849L304.629 144.535L305.322 116.837C305.322 116.837 318.72 115.99 332.006 140.343C332.006 140.343 347.706 163.487 342.879 180.822C338.052 198.157 343.8 187.829 343.8 187.829C343.8 187.829 297.738 187.338 279.198 182.247C278.026 181.926 276.965 181.587 276.033 181.225C260.332 175.176 285.699 160.662 285.699 160.662H285.704Z" fill="white"/>
<path d="M179.604 148.967C188.388 148.967 195.509 142.999 195.509 135.637C195.509 128.275 188.388 122.308 179.604 122.308C170.821 122.308 163.7 128.275 163.7 135.637C163.7 142.999 170.821 148.967 179.604 148.967Z" fill="#D9D9D9"/>
<path d="M299.625 174.18C304.406 168.588 302.873 159.417 296.201 153.696C289.528 147.975 280.244 147.87 275.463 153.462C270.682 159.054 272.216 168.225 278.888 173.946C285.56 179.668 294.844 179.772 299.625 174.18Z" fill="#D9D9D9"/>
<path d="M168.434 77.1926C168.434 77.1926 192.792 67.7983 216.095 77.1926C216.095 77.1926 222.723 107.174 197.264 115.599C171.804 124.024 163.438 86.441 168.434 77.1926Z" fill="#EC6E3F"/>
<path d="M186.886 111.36L176.147 137.214C176.147 137.214 197.194 140.869 209.431 137.214L197.835 111.36H186.88H186.886Z" fill="#EC6E3F"/>
<path d="M284.382 115.669C284.382 115.669 278.54 141.096 264.163 144.348L268.343 149.364C268.343 149.364 296.135 138.977 298.857 116.043C298.857 116.043 292.724 113.269 284.382 115.669Z" fill="#505050"/>
<path d="M255.873 145.014C255.873 145.014 243.134 139.146 247.262 120.766C247.262 120.766 239.03 120.299 236.278 123.569C236.278 123.569 236.92 144.722 250.935 150.607L255.867 145.008L255.873 145.014Z" fill="#505050"/>
<path d="M263.411 174.858C273.219 172.374 279.482 163.678 277.401 155.434C275.319 147.191 265.681 142.521 255.873 145.005C246.065 147.488 239.802 156.185 241.883 164.428C243.964 172.672 253.603 177.342 263.411 174.858Z" fill="#EC6E3F"/>
<path d="M251.314 216.531L247.501 213.84C254.59 203.78 260.17 145.277 261.79 122.751L258.852 115.727L263.603 115.605L266.53 121.875L266.489 122.477C266.256 125.77 260.683 203.248 251.314 216.531Z" fill="#EC6E3F"/>
<path d="M268.016 146.9L243.507 159.943C243.507 159.943 242.737 152.657 252.03 147.852C259.638 143.916 268.016 146.906 268.016 146.906V146.9Z" fill="white"/>
<path d="M271.246 148.698L243.489 163.271C243.489 163.271 244.714 167.183 247.617 168.579L273.368 150.841C273.368 150.841 271.759 148.698 271.246 148.698Z" fill="white"/>
<path d="M287.313 73.0179C260.635 83.6617 238.114 67.1326 238.114 67.1326C240.248 75.1724 233.852 87.5094 228.512 96.1272C234.173 105.27 244.276 111.366 255.808 111.366C273.537 111.366 287.908 96.9738 287.908 79.2185C287.908 77.0991 287.698 75.0264 287.307 73.0237L287.313 73.0179Z" fill="#D9D9D9"/>
<path d="M238.114 67.1325C238.114 67.1325 260.629 83.6617 287.313 73.0179C284.427 58.2286 271.427 47.0652 255.814 47.0652C238.085 47.0652 223.714 61.4574 223.714 79.2127C223.714 85.4191 225.475 91.211 228.518 96.1213C233.858 87.5035 240.254 75.1665 238.12 67.1267L238.114 67.1325Z" fill="#505050"/>
<path d="M273.368 76.3808C273.368 76.3808 289.57 100.734 292.508 108.324C292.508 108.324 291.482 68.5804 282.341 61.1245L273.368 76.3808Z" fill="#505050"/>
<path d="M255.873 86.6393C255.873 86.6393 266.624 89.8506 269.999 83.1128C269.999 83.1128 263.825 87.0422 255.873 86.6393Z" fill="#505050"/>
<path d="M233.381 94.1772C233.381 94.1772 244.131 97.3884 247.507 90.6506C247.507 90.6506 241.333 94.58 233.381 94.1772Z" fill="#505050"/>
</g>
</svg>
