<?xml version="1.0" encoding="UTF-8"?>
<svg id="_레이어_2" data-name="레이어 2" xmlns="http://www.w3.org/2000/svg" xmlns:xlink="http://www.w3.org/1999/xlink" viewBox="0 0 532.68 346.14">
  <defs>
    <style>
      .cls-1, .cls-2 {
        fill: none;
      }

      .cls-2 {
        stroke: #fff;
        stroke-miterlimit: 10;
        stroke-width: 10px;
      }

      .cls-3 {
        fill: #d9d9d9;
      }

      .cls-4 {
        fill: #ec6e3f;
      }

      .cls-5 {
        fill: #505050;
      }

      .cls-6 {
        fill: #fff;
      }

      .cls-7 {
        fill: #626262;
      }

      .cls-8 {
        clip-path: url(#clippath);
      }
    </style>
    <clipPath id="clippath">
      <rect class="cls-1" width="532.68" height="346.14" rx="18.56" ry="18.56"/>
    </clipPath>
  </defs>
  <g id="_레이어_5" data-name="레이어 5">
    <rect class="cls-7" width="532.68" height="346.14" rx="18.56" ry="18.56"/>
  </g>
  <g id="_얼굴" data-name="얼굴">
    <g class="cls-8">
      <g>
        <path class="cls-6" d="M-27.68,267.64s199.54-168.04,554.19-51.59l12.93,31.59s-251.68-119.25-559.99,53.27l-7.13-33.28Z"/>
        <polygon class="cls-6" points="73.94 247.65 89.86 356.01 122.48 346.47 102.55 230.54 73.94 247.65"/>
        <polygon class="cls-6" points="163.67 230.47 179.59 338.84 212.21 329.3 192.27 213.36 163.67 230.47"/>
        <polygon class="cls-6" points="351.76 204.36 381.75 338.71 412.95 323.36 377.98 179.92 351.76 204.36"/>
        <path class="cls-4" d="M221.33,285.92s-93.27-11.82-97.36,21.83c0,0-6.73,20.45,8.44,44.2l49.48,8.27s-20.65-20.38-13.3-23.02c0,0,122.33,15.38,126.55-7.64,0,0,5.5-4,10.12-11.92s-83.93-31.72-83.93-31.72Z"/>
        <path class="cls-4" d="M320.45,274.87s4.47,6.71,3.15,14.52,37.49,56.16,59.32,47.82c0,0-55.72,29.26-62.47,31.9,0,0-64.8-31.01-67.44-42.22l-42.36-40.96s58.35-6.89,75.42-19.91l34.38,8.85Z"/>
        <path class="cls-3" d="M226.79,144.33s81.35,8.04,85.9,27.62c0,0,8.19,28.01,1.82,63.63h-27.77s3.19-44.52-1.37-51.11c0,0-25.49-8.87-38.69-10.24l-19.89-29.89Z"/>
        <path class="cls-3" d="M175.61,151.84s10.16,9.01,13.44,17.86l24.91-14.09s-16.97-16.97-23.52-21.74c-.9-.66-1.61-1.08-2.04-1.2-3.61-.98-12.78,19.18-12.78,19.18Z"/>
        <path class="cls-6" d="M169.11,164.93c10.28-4.6,34.78-15.24,51.65-20.09,9.05-2.6,18.78-1.04,26.47,4.4,13.28,9.39,32.57,31.99,50.41,86.34l-85.16,35.49s-33.26-66.91-48.19-72.99v-25.69c0-3.22,1.89-6.14,4.83-7.46Z"/>
        <circle class="cls-3" cx="365.01" cy="96.78" r="55.06"/>
        <path class="cls-3" d="M395.3,151.84s-30.5,2.95-40.67,24.84c-6.5,14.01-16.53,32.82-22.91,44.56-3.52,6.47-10.95,9.76-18.11,8.02l-55.17-13.47-15.64,39.1,77.64,19.98c16.97,4.37,34.77-3.12,43.51-18.31l22.74-39.51,84.46-55.22-75.86-9.98Z"/>
        <polygon class="cls-3" points="377.68 141.96 398.37 169.25 428.47 147.75 403.08 115.93 377.68 141.96"/>
        <circle class="cls-3" cx="244.79" cy="228.88" r="27.07"/>
        <path class="cls-4" d="M354.64,176.68s-3.06,52.72,65.44,99.42c0,0,24.6,45.8,19.3,61.11l117.16-61.11s-58.28-136.75-81.83-140.85c0,0-38.74-8.25-79.4,16.59,0,0-34.15,3.26-40.67,24.84Z"/>
        <path class="cls-3" d="M382.91,148.86l9.06,11.95s16.7,7.69,31.07-18.23l-12.47-17.27-27.66,23.54Z"/>
        <polygon class="cls-4" points="439.37 337.21 577.2 330.31 548.56 264.63 439.37 337.21"/>
        <path class="cls-3" d="M413.52,314.37c-6.84.89-10.54,1.61-10.54,1.61-21.49-2.1-37.96,34.51-37.96,34.51l81.47,9.73c-8.79-17.05-19.48-33.04-32.96-45.85Z"/>
        <path class="cls-6" d="M533.58,314.68c-56.69-6.73-100.82-2.82-120.06-.31,13.48,12.81,24.17,28.8,32.96,45.85l92.96,11.1-5.86-56.64Z"/>
        <path class="cls-2" d="M466.7,174.24s71.35,130.11,77.02,170.14"/>
        <path class="cls-2" d="M486.58,167.07s71.35,130.11,77.02,170.14"/>
        <path class="cls-3" d="M507.08,138.82c11.37,2.98,77.42,13.55,77.42,13.55l20.75,114.57-44.78.71-6.88-71.55-82.08-16s-35.87-13.83-19.45-39.64c0,0,3.5-15.13,55.01-1.63Z"/>
        <ellipse class="cls-3" cx="175.61" cy="184.46" rx="19.54" ry="17.35"/>
        <path class="cls-3" d="M192.7,192.87s-18.12,28.13-30.11,45.85c-5.19,7.67-14.92,10.86-23.64,7.73l-49.08-17.58,8.85-22.06,36.86,11.59c4.09,1.29,8.5-.62,10.36-4.48,3.74-7.75,9.34-20.59,10.14-29.47l36.62,8.41Z"/>
        <ellipse class="cls-3" cx="89.86" cy="213.97" rx="19.61" ry="16.57"/>
        <path class="cls-6" d="M212.47,271.06l-1.83,14.86s62.23-2.01,79.36-18.89l-47.2-12.15-34.65,1.07,4.32,15.11Z"/>
        <g>
          <path class="cls-3" d="M122.48,108.07c2.36,5.61-.25,22.55-2.01,32.13,7.96,12.24,21.74,20.34,37.43,20.34,24.64,0,44.62-19.98,44.62-44.62,0-4.32-.62-8.48-1.77-12.43-32.04,15.76-78.26,4.58-78.26,4.58Z"/>
          <path class="cls-5" d="M122.48,108.07s46.22,11.18,78.26-4.58c-5.38-18.59-22.52-32.19-42.85-32.19-24.64,0-44.62,19.98-44.62,44.62,0,8.96,2.65,17.29,7.19,24.28,1.76-9.59,4.37-26.52,2.01-32.13Z"/>
        </g>
        <path class="cls-5" d="M188.89,97.55s-4.15-24.16,35.81-8.68c0,0,44.76,22.97,65.82,4.49,0,0-7.4,22.2-42.84,23.33,0,0-43.49,4.05-51.42-2.87,0,0-11.66-8.07-7.36-16.28Z"/>
        <path class="cls-5" d="M174.35,108.91s7.34,23.72,39.61,23.72c0,0-12.6-9.4-11.45-16.7l-1.77-12.43-26.4,5.41Z"/>
        <g>
          <path class="cls-5" d="M405.74,49.62s-8.17-5.1-17.03-8.77c-26.6-8.61-41.22-1.69-60.2,7.89-11.92,6.02-30.11,24.69-41.02,22.56,0,0,3.02,22.05,91.84,0,0,0,7.07,37.01,37.31,44.62,0,0,20.66-37.93-10.91-66.3Z"/>
          <path class="cls-5" d="M376.48,37.32c-.67-.07-1.33-.12-1.96-.12l1.96.12Z"/>
        </g>
        <ellipse class="cls-3" cx="395.28" cy="96.78" rx="10.05" ry="14.48"/>
        <g>
          <path class="cls-6" d="M348.27,96.65c13.15-7.23,20.32-7.63,20.32-7.63-12.1-1.91-19.24.07-23.47,3.03,1.62,1.01,2.79,2.66,3.14,4.61Z"/>
          <path class="cls-4" d="M339.01,102.29c3.35-2.24,6.44-4.09,9.25-5.64-.35-1.94-1.52-3.6-3.14-4.61-5.94,4.16-6.11,10.25-6.11,10.25Z"/>
        </g>
        <g>
          <path class="cls-6" d="M323.3,107.18s-4.11-6.23-8.93-5.28c1.42,1.39,2.35,3.45,2.46,5.76,2.48-.73,5.11-1.2,6.47-.49Z"/>
          <path class="cls-4" d="M314.37,101.91c-1.4.28-2.86,1.16-4.3,2.99l.98,4.93s2.78-1.26,5.78-2.15c-.11-2.31-1.04-4.37-2.46-5.76Z"/>
        </g>
        <path class="cls-5" d="M339.01,102.29s0-16.98,29.58-13.28c0,0-33.27-9.2-29.58,13.28Z"/>
        <path class="cls-5" d="M323.3,106.87s-9.85-6.57-13.23-1.95v-2.08s4.3-6.67,13.23,4.02Z"/>
        <path class="cls-5" d="M143.54,132.02s-2.29-16.32,17.95-13.96c0,0-16.93,3.37-17.95,13.96Z"/>
        <path class="cls-5" d="M135.54,139.45s-11.1,1.29-9.61,7.58l1.5,1.48s-.37-5.54,8.11-9.06Z"/>
      </g>
    </g>
  </g>
</svg>