<svg width="108" height="108" viewBox="0 0 108 108" fill="none" xmlns="http://www.w3.org/2000/svg">
<circle cx="54" cy="54" r="54" fill="#FF632C"/>
<path d="M43.358 69V64.5682L53.7131 54.9801C54.5938 54.1278 55.3324 53.3608 55.929 52.679C56.535 51.9972 56.9943 51.3295 57.3068 50.6761C57.6193 50.0133 57.7756 49.2983 57.7756 48.5312C57.7756 47.679 57.5814 46.9451 57.1932 46.3295C56.8049 45.7045 56.2746 45.2263 55.6023 44.8949C54.9299 44.554 54.1676 44.3835 53.3153 44.3835C52.4252 44.3835 51.6487 44.5634 50.9858 44.9233C50.3229 45.2831 49.8116 45.7992 49.4517 46.4716C49.0919 47.1439 48.9119 47.9441 48.9119 48.8722H43.0739C43.0739 46.9687 43.5047 45.3163 44.3665 43.9148C45.2282 42.5133 46.4356 41.429 47.9886 40.6619C49.5417 39.8949 51.3314 39.5114 53.358 39.5114C55.4413 39.5114 57.2547 39.8807 58.7983 40.6193C60.3513 41.3485 61.5587 42.3617 62.4205 43.6591C63.2822 44.9564 63.7131 46.4432 63.7131 48.1193C63.7131 49.2178 63.4953 50.3021 63.0597 51.3722C62.6335 52.4422 61.8712 53.6307 60.7727 54.9375C59.6742 56.2348 58.1259 57.7926 56.1278 59.6108L51.8807 63.7727V63.9716H64.0966V69H43.358Z" fill="white"/>
</svg>
