<svg width="108" height="108" viewBox="0 0 108 108" fill="none" xmlns="http://www.w3.org/2000/svg">
<circle cx="54" cy="54" r="54" fill="#FF632C"/>
<path d="M54.1108 69.3977C51.9896 69.3977 50.1004 69.0331 48.4432 68.304C46.7955 67.5653 45.4934 66.5521 44.5369 65.2642C43.59 63.9669 43.1023 62.4706 43.0739 60.7756H49.267C49.3049 61.4858 49.5369 62.1108 49.9631 62.6506C50.3987 63.1809 50.9763 63.5928 51.696 63.8864C52.4157 64.1799 53.2254 64.3267 54.125 64.3267C55.0625 64.3267 55.8911 64.161 56.6108 63.8295C57.3305 63.4981 57.8939 63.0388 58.3011 62.4517C58.7083 61.8646 58.9119 61.1875 58.9119 60.4205C58.9119 59.6439 58.6941 58.9574 58.2585 58.3608C57.8324 57.7547 57.2169 57.2812 56.4119 56.9403C55.6165 56.5994 54.6695 56.429 53.571 56.429H50.858V51.9119H53.571C54.4991 51.9119 55.3182 51.7509 56.0284 51.429C56.7481 51.107 57.3068 50.6619 57.7045 50.0938C58.1023 49.5161 58.3011 48.8438 58.3011 48.0767C58.3011 47.3475 58.1259 46.7083 57.7756 46.1591C57.4347 45.6004 56.9517 45.1648 56.3267 44.8523C55.7112 44.5398 54.9915 44.3835 54.1676 44.3835C53.3343 44.3835 52.572 44.535 51.8807 44.8381C51.1894 45.1316 50.6354 45.553 50.2188 46.1023C49.8021 46.6515 49.5795 47.2955 49.5511 48.0341H43.6562C43.6847 46.358 44.1629 44.8807 45.0909 43.6023C46.0189 42.3239 47.2689 41.3248 48.8409 40.6051C50.4223 39.8759 52.2074 39.5114 54.196 39.5114C56.2036 39.5114 57.9602 39.8759 59.4659 40.6051C60.9716 41.3343 62.1411 42.3191 62.9744 43.5597C63.8172 44.7907 64.2339 46.1733 64.2244 47.7074C64.2339 49.3362 63.7273 50.6951 62.7045 51.7841C61.6913 52.8731 60.3703 53.5644 58.7415 53.858V54.0852C60.8816 54.3598 62.5104 55.1032 63.6278 56.3153C64.7547 57.518 65.3134 59.0237 65.304 60.8324C65.3134 62.4896 64.8352 63.9621 63.8693 65.25C62.9129 66.5379 61.5919 67.5511 59.9062 68.2898C58.2206 69.0284 56.2888 69.3977 54.1108 69.3977Z" fill="white"/>
</svg>
