<svg width="112" height="108" viewBox="0 0 112 108" fill="none" xmlns="http://www.w3.org/2000/svg">
<ellipse cx="56" cy="54" rx="56" ry="54" fill="#FF632C"/>
<path d="M42.8539 39.2L51.2434 28.325C51.8427 27.525 52.5543 26.9375 53.3783 26.5625C54.2022 26.1875 55.0637 26 55.9625 26C56.8614 26 57.7228 26.1875 58.5468 26.5625C59.3708 26.9375 60.0824 27.525 60.6816 28.325L69.0712 39.2L81.8052 43.475C83.1036 43.875 84.1273 44.6125 84.8764 45.6875C85.6255 46.7625 86 47.95 86 49.25C86 49.85 85.9126 50.45 85.7378 51.05C85.563 51.65 85.2759 52.225 84.8764 52.775L76.6367 64.475L76.9363 76.775C76.9863 78.525 76.412 80 75.2135 81.2C74.015 82.4 72.6167 83 71.0187 83C70.9188 83 70.3695 82.925 69.3708 82.775L55.9625 79.025L42.5543 82.775C42.3046 82.875 42.03 82.9375 41.7303 82.9625C41.4307 82.9875 41.1561 83 40.9064 83C39.3084 83 37.9101 82.4 36.7116 81.2C35.5131 80 34.9388 78.525 34.9888 76.775L35.2884 64.4L27.1236 52.775C26.7241 52.225 26.437 51.65 26.2622 51.05C26.0874 50.45 26 49.85 26 49.25C26 48 26.362 46.8375 27.0861 45.7625C27.8102 44.6875 28.8215 43.925 30.1199 43.475L42.8539 39.2Z" fill="white"/>
</svg>
