<svg width="322" height="205" viewBox="0 0 322 205" fill="none" xmlns="http://www.w3.org/2000/svg">
<g clip-path="url(#clip0_1527_8560)">
<mask id="mask0_1527_8560" style="mask-type:luminance" maskUnits="userSpaceOnUse" x="0" y="0" width="322" height="205">
<path d="M310.848 0H11.1517C4.99281 0 0 4.95361 0 11.0642V193.936C0 200.046 4.99281 205 11.1517 205H310.848C317.007 205 322 200.046 322 193.936V11.0642C322 4.95361 317.007 0 310.848 0Z" fill="white"/>
</mask>
<g mask="url(#mask0_1527_8560)">
<path d="M95.6411 17.8603C90.0564 15.5015 84.4717 13.9718 82.518 16.1671C82.518 16.1671 57.2956 7.30994 48.6979 31.26C48.6979 31.26 60.497 50.2822 45.8438 57.8316C51.4638 67.3719 61.8917 73.7885 73.832 73.7885C91.7277 73.7885 106.234 59.3963 106.234 41.6411C106.234 32.2175 102.15 23.7457 95.6411 17.8662V17.8603Z" fill="#D9D9D9"/>
<path d="M48.6974 31.26C57.2952 7.30999 82.5175 16.1672 82.5175 16.1672C84.4713 13.9719 90.056 15.4957 95.6407 17.8604C89.8853 12.6582 82.2292 9.48779 73.8315 9.48779C55.9358 9.48779 41.4297 23.88 41.4297 41.6353C41.4297 47.544 43.0421 53.0731 45.8433 57.8316C60.4965 50.2823 48.6974 31.26 48.6974 31.26Z" fill="#505050"/>
<path d="M230.662 96.1271C230.662 96.1271 236.429 118.384 230.939 125.857C230.939 125.857 271.809 95.9111 295.26 108.324C295.26 108.324 295.219 78.0857 290.016 73.0178L230.668 96.1213L230.662 96.1271Z" fill="#505050"/>
<path d="M43.3187 182.299C43.3187 182.299 39.2817 205.251 28.7891 216.864L123.464 212.8C123.464 212.8 112.936 185.633 114.248 178.825L43.3187 182.299Z" fill="white"/>
<path d="M64.5566 69.7599V84.6426H83.1056V66.502L64.5566 69.7599Z" fill="#D9D9D9"/>
<path d="M257.12 107.828L260.58 122.313L278.635 118.063L274.416 100.413L257.12 107.828Z" fill="#D9D9D9"/>
<path d="M50.2861 73.7827C50.2861 73.7827 95.1697 54.5153 103.579 69.865L100.648 94.8485L57.3126 91.9409L50.2861 73.7769V73.7827Z" fill="#EC6E3F"/>
<path d="M46.6906 81.6591C64.6982 78.0742 96.2821 71.6166 113.901 78.4712C113.901 78.4712 129.002 121.426 116.596 184.361C116.596 184.361 66.9109 193.148 41.4296 187.525C41.4296 187.525 46.7083 129.162 41.4296 118.962L22.9454 133.243C19.2497 136.098 18.9437 141.54 22.3039 144.786L41.4296 163.26L21.6213 177.675L-20.1963 137.593L24.3813 93.4823C30.4838 87.4452 38.24 83.3348 46.6906 81.6533V81.6591Z" fill="#EC6E3F"/>
<path d="M132.68 57.0785L151.523 84.9754C155.931 91.503 153.794 100.413 146.844 104.179C139.894 107.945 130.179 110.385 118.15 105.954C93.3454 96.8103 114.96 104.897 114.96 104.897L113.283 78.1734L124.859 83.7143L114.254 69.6958L132.68 57.0785Z" fill="#EC6E3F"/>
<path d="M50.963 183.159C53.9259 175.242 51.0668 166.886 44.577 164.495C38.0872 162.104 30.4243 166.584 27.4614 174.501C24.4986 182.418 27.3577 190.774 33.8475 193.165C40.3373 195.556 48.0002 191.076 50.963 183.159Z" fill="#D9D9D9"/>
<path d="M127.201 55.3268C127.201 62.8879 120.792 69.0184 112.883 69.0184C104.974 69.0184 98.5654 62.8879 98.5654 55.3268C98.5654 47.7658 104.974 41.6353 112.883 41.6353C120.792 41.6353 127.201 47.7658 127.201 55.3268Z" fill="#D9D9D9"/>
<path d="M88.7207 49.7043L91.9044 53.949L104.174 46.3588L99.3546 41.1682L88.7207 49.7043Z" fill="#EC6E3F"/>
<path d="M104.174 53.2308C108.23 53.2308 111.519 50.1358 111.519 46.3178C111.519 42.4999 108.23 39.4049 104.174 39.4049C100.118 39.4049 96.8301 42.4999 96.8301 46.3178C96.8301 50.1358 100.118 53.2308 104.174 53.2308Z" fill="#EC6E3F"/>
<path d="M102.514 53.2308C106.57 53.2308 109.858 50.1358 109.858 46.3178C109.858 42.4999 106.57 39.4049 102.514 39.4049C98.4581 39.4049 95.1699 42.4999 95.1699 46.3178C95.1699 50.1358 98.4581 53.2308 102.514 53.2308Z" fill="#EC6E3F"/>
<path d="M88.7203 49.7042L88.1318 52.8279L91.904 53.9489L91.3391 49.2196L88.7203 49.7042Z" fill="#EC6E3F"/>
<path d="M88.1318 52.8279L95.788 52.209L94.0637 56.8215L88.1318 52.8279Z" fill="#D9D9D9"/>
<path d="M114.254 69.6957C114.254 69.6957 128.236 56.6639 132.679 57.0784L130.808 77.1925L114.254 69.6957Z" fill="#EC6E3F"/>
<path d="M41.4294 163.26C41.4294 163.26 33.9027 177.109 24.587 182.299L21.6211 177.675L28.0179 164.293L41.4294 163.26Z" fill="#EC6E3F"/>
<path d="M95.8228 187.286L90.7912 187.829C94.0279 174.441 94.6458 150.257 91.5916 122.944C89.273 102.188 85.9304 85.2615 85.8951 85.0922L85.7715 84.4791L85.9716 83.8894C88.8139 75.5577 88.4785 62.9171 88.4314 63.933L93.0804 64.114C93.0981 64.476 93.5512 75.8146 90.6323 84.7886C92.0388 92.0402 103.614 155.068 95.8228 187.274V187.286Z" fill="white"/>
<path d="M58.4893 27.1379C58.4893 27.1379 99.377 22.3269 113.93 23.5939C113.93 23.5939 114.925 33.3911 103.867 36.3279C92.8096 39.2648 89.467 28.9304 89.467 28.9304C89.467 28.9304 86.7423 36.7775 79.5157 37.8577C72.2951 38.9436 61.5141 34.8683 58.4893 27.1379Z" fill="#505050"/>
<path d="M258.921 115.36C258.921 115.36 267.054 117.707 277.034 111.36L278.635 118.063L260.58 122.313L258.921 115.36Z" fill="white"/>
<path d="M230.938 125.857C230.938 125.857 273.456 111.36 308.194 116.837C308.194 116.837 311.555 212.275 305.458 220.344L224.171 224.781C224.171 224.781 230.385 145.493 230.933 125.863L230.938 125.857Z" fill="white"/>
<path d="M230.939 125.857L205.257 160.802C204.345 162.045 202.491 162.086 201.526 160.883L186.379 142.112L161.586 150.981L189.627 187.829C194.935 192.914 210.571 190.176 216.185 185.417L241.649 163.844L230.939 125.852V125.857Z" fill="white"/>
<path d="M288.392 160.662L321.312 163.849L307.495 144.535L308.195 116.837C308.195 116.837 321.718 115.99 335.13 140.343C335.13 140.343 350.978 163.487 346.105 180.822C341.232 198.157 347.035 187.829 347.035 187.829C347.035 187.829 300.539 187.338 281.825 182.247C280.642 181.926 279.571 181.587 278.63 181.225C262.782 175.176 288.387 160.662 288.387 160.662H288.392Z" fill="white"/>
<path d="M181.294 148.967C190.16 148.967 197.348 142.999 197.348 135.637C197.348 128.275 190.16 122.308 181.294 122.308C172.428 122.308 165.24 128.275 165.24 135.637C165.24 142.999 172.428 148.967 181.294 148.967Z" fill="#D9D9D9"/>
<path d="M302.444 174.18C307.269 168.588 305.722 159.417 298.987 153.696C292.252 147.975 282.88 147.87 278.054 153.462C273.228 159.054 274.776 168.225 281.511 173.947C288.246 179.668 297.618 179.772 302.444 174.18Z" fill="#D9D9D9"/>
<path d="M170.019 77.1925C170.019 77.1925 194.605 67.7981 218.127 77.1925C218.127 77.1925 224.818 107.174 199.119 115.599C173.42 124.024 164.975 86.4409 170.019 77.1925Z" fill="#EC6E3F"/>
<path d="M188.645 111.36L177.805 137.214C177.805 137.214 199.049 140.869 211.401 137.214L199.696 111.36H188.639H188.645Z" fill="#EC6E3F"/>
<path d="M287.056 115.669C287.056 115.669 281.159 141.096 266.647 144.348L270.867 149.364C270.867 149.364 298.92 138.977 301.668 116.043C301.668 116.043 295.477 113.269 287.056 115.669Z" fill="#505050"/>
<path d="M258.28 145.014C258.28 145.014 245.422 139.146 249.588 120.766C249.588 120.766 241.279 120.299 238.501 123.569C238.501 123.569 239.148 144.722 253.295 150.607L258.274 145.008L258.28 145.014Z" fill="#505050"/>
<path d="M265.888 174.858C275.788 172.374 282.111 163.678 280.01 155.434C277.909 147.19 268.18 142.521 258.279 145.005C248.379 147.488 242.057 156.184 244.158 164.428C246.259 172.672 255.987 177.342 265.888 174.858Z" fill="#EC6E3F"/>
<path d="M253.678 216.531L249.829 213.84C256.985 203.78 262.617 145.277 264.253 122.751L261.287 115.727L266.083 115.605L269.037 121.876L268.996 122.477C268.761 125.77 263.135 203.248 253.678 216.531Z" fill="#EC6E3F"/>
<path d="M270.538 146.9L245.798 159.943C245.798 159.943 245.021 152.657 254.402 147.852C262.081 143.916 270.538 146.906 270.538 146.906V146.9Z" fill="white"/>
<path d="M273.798 148.698L245.78 163.271C245.78 163.271 247.016 167.183 249.947 168.579L275.94 150.841C275.94 150.841 274.316 148.698 273.798 148.698Z" fill="white"/>
<path d="M290.016 73.0179C263.088 83.6617 240.354 67.1326 240.354 67.1326C242.508 75.1724 236.053 87.5094 230.662 96.1272C236.376 105.27 246.575 111.366 258.215 111.366C276.111 111.366 290.617 96.9738 290.617 79.2185C290.617 77.0991 290.405 75.0264 290.011 73.0237L290.016 73.0179Z" fill="#D9D9D9"/>
<path d="M240.355 67.1325C240.355 67.1325 263.082 83.6617 290.017 73.0179C287.104 58.2286 273.981 47.0652 258.221 47.0652C240.325 47.0652 225.819 61.4574 225.819 79.2127C225.819 85.4191 227.597 91.211 230.668 96.1213C236.059 87.5035 242.515 75.1665 240.361 67.1267L240.355 67.1325Z" fill="#505050"/>
<path d="M275.939 76.381C275.939 76.381 292.293 100.734 295.259 108.324C295.259 108.324 294.224 68.5806 284.996 61.1246L275.939 76.381Z" fill="#505050"/>
<path d="M258.279 86.6394C258.279 86.6394 269.131 89.8507 272.538 83.1129C272.538 83.1129 266.306 87.0423 258.279 86.6394Z" fill="#505050"/>
<path d="M235.576 94.177C235.576 94.177 246.428 97.3883 249.835 90.6505C249.835 90.6505 243.603 94.5799 235.576 94.177Z" fill="#505050"/>
</g>
</g>
<defs>
<clipPath id="clip0_1527_8560">
<rect width="322" height="205" fill="white"/>
</clipPath>
</defs>
</svg>
