<?xml version="1.0" encoding="UTF-8"?>
<svg id="_레이어_2" data-name="레이어 2" xmlns="http://www.w3.org/2000/svg" viewBox="0 0 18.8 20.89">
  <g id="_레이어_2-2" data-name="레이어 2">
    <path d="M16.71,2.09h-1.04V0h-2.09v2.09H5.22V0h-2.09v2.09h-1.04C.93,2.09.01,3.03.01,4.18v14.62c-.01,1.15.92,2.09,2.08,2.09h14.62c1.15,0,2.09-.94,2.09-2.09V4.18c0-1.15-.94-2.09-2.09-2.09ZM16.71,18.8H2.09v-10.44h14.62v10.44ZM6.27,12.53h-2.09v-2.09h2.09v2.09ZM10.44,12.53h-2.09v-2.09h2.09v2.09ZM14.62,12.53h-2.09v-2.09h2.09v2.09ZM6.27,16.71h-2.09v-2.09h2.09v2.09ZM10.44,16.71h-2.09v-2.09h2.09v2.09ZM14.62,16.71h-2.09v-2.09h2.09v2.09Z"/>
  </g>
</svg>