<?xml version="1.0" encoding="UTF-8"?>
<svg id="_레이어_2" data-name="레이어 2" xmlns="http://www.w3.org/2000/svg" viewBox="0 0 197.78 40">
  <defs>
    <style>
      .cls-1 {
        fill: #fff;
      }
    </style>
  </defs>
  <g id="_로고" data-name="로고">
    <path class="cls-1" d="M58.4,8.18c-2.39,1.81-3.3,4.62-2.05,6.27,1.25,1.65,4.2,1.52,6.59-.29,2.39-1.81,3.3-4.62,2.05-6.27-1.25-1.65-4.2-1.52-6.59.29Z"/>
    <path class="cls-1" d="M26.91,12.15c2.38-1.81,3.3-4.62,2.05-6.27-1.25-1.65-4.2-1.52-6.58.29-2.38,1.81-3.3,4.62-2.05,6.27,1.25,1.65,4.2,1.52,6.58-.29Z"/>
    <path class="cls-1" d="M26.13,19.36c-.18-.55-.43-1.08-.79-1.55-1.64-2.16-4.8-2.72-8.09-1.74.61.35,1.14.8,1.57,1.37.58.76.91,1.65,1.02,2.61.35,2.99-1.46,6.66-4.86,9.26-2.86,1.72-5.96,2.24-8.34,1.53l-5.56,9.16,8.92-.06,4.78-7.51c2.16-.18,4.52-1.09,6.66-2.71,1.16-.88,2.13-1.88,2.9-2.94.21-.29.41-.59.59-.89,1.35-2.22,1.81-4.6,1.19-6.54h0Z"/>
    <path class="cls-1" d="M9.15,16.58c-.61-.35-1.14-.8-1.57-1.37-2.38-3.14-.64-8.47,3.9-11.92.95-.72,1.96-1.3,2.97-1.74.49-.21.98-.39,1.47-.54-.1-.06-.21-.11-.32-.17C12.79-.52,8.54.21,4.96,2.92.43,6.37-1.32,11.7,1.07,14.84c1.64,2.16,4.8,2.72,8.09,1.74h0Z"/>
    <path class="cls-1" d="M77.72,18.14s-.08-.05-.11-.08l1.85-2.75-9.18.05-1.9,2.81-23.31.07L56.12,1.79l43.55-.26,1.07-1.53-63.34.37v.84c.83,0,1.57.22,2.14.66-.03,0-.06.02-.08.02.61.35,1.14.8,1.57,1.37,1.47,1.94,1.36,4.71,0,7.36l-1.66,2.46-3.53,5.22-14.5,21.46,9.3-.05,13.39-19.92,6.22-.02-13.45,19.9,9.28-.05,13.35-19.88h3.92c.25.21.48.45.69.72.58.76.91,1.65,1.02,2.61l-7.28,10.77-.89,1.32-2.98,4.41,9.27-.05,6.28-9.34,4.91-7.3.99-1.24c.54-.7,1.21-1.26,2.02-1.62.35-.15.7-.26,1.07-.33h2.54s1.07-1.54,1.07-1.54h-4.34s0,0,0,0Z"/>
    <path class="cls-1" d="M112.4,18.63c-.05-.46-.24-.81-.58-1.07-.35-.25-.81-.38-1.4-.38-.4,0-.74.06-1.02.17-.28.11-.49.26-.64.46-.14.2-.22.42-.22.67,0,.21.04.39.13.55.1.16.23.29.4.4.17.11.37.21.59.29.22.08.46.15.72.2l1.05.25c.51.11.97.27,1.4.45.42.19.79.42,1.1.7.31.28.55.6.72.98.17.38.26.8.27,1.29,0,.71-.19,1.33-.55,1.85-.36.52-.87.92-1.55,1.21-.67.28-1.48.43-2.43.43s-1.76-.14-2.46-.43c-.69-.29-1.24-.71-1.62-1.28-.39-.57-.59-1.27-.61-2.11h2.38c.03.39.14.72.33.98.2.26.47.45.8.59.34.13.72.19,1.14.19s.78-.06,1.09-.18c.31-.12.55-.29.72-.51.17-.22.26-.46.26-.74,0-.26-.08-.48-.23-.66-.15-.18-.38-.33-.67-.45-.29-.12-.65-.24-1.07-.34l-1.27-.32c-.98-.24-1.76-.61-2.32-1.12-.57-.51-.85-1.19-.85-2.05,0-.7.18-1.32.56-1.85.38-.53.91-.94,1.57-1.23.67-.3,1.43-.44,2.27-.44s1.62.15,2.26.44c.65.3,1.15.71,1.51,1.23s.55,1.14.56,1.83h-2.36ZM116.57,26.92v-11.64h4.59c.88,0,1.63.17,2.25.51.62.33,1.1.8,1.42,1.39.33.59.49,1.27.49,2.05s-.17,1.45-.5,2.05c-.33.59-.82,1.05-1.45,1.38-.63.33-1.39.49-2.28.49h-2.93v-1.97h2.53c.47,0,.86-.08,1.17-.24.31-.17.54-.4.69-.69.15-.3.23-.63.23-1.02s-.08-.72-.23-1.01c-.15-.29-.38-.52-.69-.68-.31-.16-.71-.24-1.18-.24h-1.66v9.62h-2.46ZM137.62,21.11c0,1.27-.24,2.35-.72,3.24-.48.89-1.13,1.57-1.96,2.04-.82.47-1.75.7-2.77.7s-1.96-.23-2.78-.7c-.82-.47-1.47-1.15-1.95-2.04-.48-.89-.72-1.97-.72-3.23s.24-2.35.72-3.24c.48-.89,1.13-1.57,1.95-2.03.82-.47,1.75-.7,2.78-.7s1.95.23,2.77.7c.83.47,1.48,1.14,1.96,2.03.48.89.72,1.97.72,3.24ZM135.13,21.11c0-.82-.12-1.52-.37-2.08-.24-.56-.59-.99-1.03-1.28-.44-.29-.96-.44-1.56-.44s-1.11.15-1.56.44c-.44.29-.79.72-1.04,1.28-.24.56-.36,1.26-.36,2.08s.12,1.52.36,2.08c.25.56.59.99,1.04,1.28.44.29.96.44,1.56.44s1.11-.15,1.56-.44c.44-.29.79-.72,1.03-1.28.25-.56.37-1.26.37-2.08ZM139.45,26.92v-11.64h4.59c.88,0,1.63.16,2.25.47.62.31,1.1.75,1.43,1.32.33.57.49,1.24.49,2.01s-.17,1.44-.5,1.99c-.33.55-.82.98-1.45,1.27-.63.3-1.39.44-2.28.44h-3.07v-1.98h2.68c.47,0,.86-.06,1.17-.19.31-.13.54-.32.69-.58.15-.26.23-.58.23-.96s-.08-.71-.23-.98c-.15-.27-.38-.47-.7-.6-.31-.14-.7-.21-1.18-.21h-1.66v9.62h-2.46ZM145.73,21.63l2.89,5.3h-2.72l-2.83-5.3h2.65ZM149.5,17.32v-2.03h9.56v2.03h-3.56v9.61h-2.43v-9.61h-3.56ZM166.95,18.63c-.05-.46-.24-.81-.59-1.07-.34-.25-.81-.38-1.4-.38-.4,0-.74.06-1.02.17-.28.11-.49.26-.64.46-.14.2-.22.42-.22.67,0,.21.04.39.13.55.1.16.23.29.4.4.17.11.37.21.59.29.22.08.46.15.72.2l1.05.25c.51.11.97.27,1.4.45s.79.42,1.1.7c.31.28.55.6.72.98.17.38.26.8.27,1.29,0,.71-.19,1.33-.55,1.85-.36.52-.87.92-1.54,1.21-.67.28-1.48.43-2.43.43s-1.76-.14-2.46-.43c-.69-.29-1.24-.71-1.62-1.28-.39-.57-.59-1.27-.61-2.11h2.38c.03.39.14.72.34.98.2.26.47.45.8.59.34.13.72.19,1.14.19s.78-.06,1.09-.18c.31-.12.55-.29.72-.51.17-.22.26-.46.26-.74,0-.26-.08-.48-.23-.66-.15-.18-.38-.33-.67-.45-.29-.12-.65-.24-1.07-.34l-1.27-.32c-.98-.24-1.75-.61-2.32-1.12-.57-.51-.85-1.19-.85-2.05,0-.7.18-1.32.56-1.85.38-.53.91-.94,1.57-1.23.67-.3,1.43-.44,2.27-.44s1.62.15,2.26.44c.65.3,1.15.71,1.51,1.23s.54,1.14.56,1.83h-2.36ZM174.82,26.92v-11.64h7.7v2.03h-5.24v2.77h4.73v2.03h-4.73v4.81h-2.46ZM186.64,15.29v11.64h-2.46v-11.64h2.46ZM188.22,17.32v-2.03h9.56v2.03h-3.56v9.61h-2.43v-9.61h-3.56Z"/>
  </g>
</svg>