<?xml version="1.0" encoding="UTF-8"?>
<svg id="_레이어_2" data-name="레이어 2" xmlns="http://www.w3.org/2000/svg" viewBox="0 0 24.98 25.54">
  <defs>
    <style>
      .cls-1 {
        fill: #fff;
      }
    </style>
  </defs>
  <g id="_레이어_6" data-name="레이어 6">
    <path class="cls-1" d="M17.85,16.06h-1.13l-.4-.39c1.4-1.66,2.24-3.83,2.24-6.18C18.57,4.25,14.41,0,9.28,0S0,4.25,0,9.49s4.16,9.49,9.28,9.49c2.3,0,4.41-.86,6.04-2.29l.39.41v1.15l7.14,7.29,2.13-2.18-7.13-7.3ZM9.28,16.06c-3.56,0-6.43-2.93-6.43-6.57s2.87-6.57,6.43-6.57,6.43,2.93,6.43,6.57-2.87,6.57-6.43,6.57Z"/>
  </g>
</svg>