<?xml version="1.0" encoding="UTF-8"?>
<svg id="_레이어_2" data-name="레이어 2" xmlns="http://www.w3.org/2000/svg" viewBox="0 0 25.22 24.84">

  <g id="_레이어_5" data-name="레이어 5">
    <g>
      <path d="M14.27,8.68c.7,0,1.27-.57,1.27-1.27V1.27C15.54.57,14.97,0,14.26,0L1.26.06c-.7,0-1.26.57-1.26,1.27v9.67l2.88-2.33h11.39Z"/>
      <path d="M24.23,1.3h-6.18s.07,5,.09,6.34c.03,1.34-1,1.94-1,1.94h5.24l2.83,2.81V2.44c0-.92-1-1.14-1-1.14Z"/>
      <path d="M2.7,15.26c0,1.52,1.24,2.76,2.76,2.76s2.76-1.24,2.76-2.76-1.24-2.76-2.76-2.76-2.76,1.24-2.76,2.76Z"/>
      <path d="M22.67,15.26c0-1.52-1.24-2.76-2.76-2.76s-2.76,1.24-2.76,2.76,1.24,2.76,2.76,2.76,2.76-1.24,2.76-2.76Z"/>
      <path d="M14.01,23.02v1.82h11.21v-1.89s-2.42-2.2-5.32-2.04-4.92.57-5.9,2.1Z"/>
      <path d="M0,23.02v1.82h11.21v-1.89s-2.42-2.2-5.32-2.04c-2.9.17-4.92.57-5.9,2.1Z"/>
    </g>
  </g>
</svg>