<?xml version="1.0" encoding="UTF-8"?>
<svg id="_레이어_2" data-name="레이어 2" xmlns="http://www.w3.org/2000/svg" viewBox="0 0 22 27">
  <g id="_레이어_2-2" data-name="레이어 2">
    <path d="M11,13.76c.76,0,1.4-.27,1.94-.81.54-.54.81-1.19.81-1.94s-.27-1.4-.81-1.94c-.54-.54-1.19-.81-1.94-.81s-1.4.27-1.94.81c-.54.54-.81,1.19-.81,1.94s.27,1.4.81,1.94c.54.54,1.19.81,1.94.81ZM11,27c-.18,0-.37-.03-.55-.1s-.34-.16-.48-.28c-3.35-2.96-5.84-5.7-7.49-8.24C.82,15.85,0,13.48,0,11.28,0,7.84,1.11,5.1,3.32,3.06,5.53,1.02,8.09,0,11,0s5.47,1.02,7.68,3.06c2.21,2.04,3.32,4.78,3.32,8.22,0,2.2-.83,4.57-2.48,7.1-1.65,2.53-4.15,5.28-7.49,8.24-.14.11-.3.21-.48.28s-.37.1-.55.1Z"/>
  </g>
</svg>