<?xml version="1.0" encoding="UTF-8"?>
<svg id="_레이어_2" data-name="레이어 2" xmlns="http://www.w3.org/2000/svg" viewBox="0 0 52.23 52">
 
  <g id="_레이어_7" data-name="레이어 7">
    <path  d="M52,11.17c-.52-3.22-3.85-5.28-3.85-5.28h-7.2V0H11.78v5.89h-7.7S.75,7.96.23,11.17c-.52,3.22,0,6.35,0,6.35,0,0,2.69,10.63,12.17,10.92h0c1.19,2.5,4.28,7.35,10.62,8.58v9.11h-11.7v5.87h29.63v-5.87h-11.64v-9.12c6.48-1.25,9.72-6.11,10.98-8.6,9.11-.62,11.71-10.89,11.71-10.89,0,0,.52-3.13,0-6.35ZM5.74,13.26c-.08-.9.64-1.68,1.54-1.68h4.5v10.88c-4.62-.06-5.76-6.16-6.04-9.2ZM40.95,22.42v-10.83h4c.91,0,1.63.78,1.54,1.68-.27,2.92-1.35,8.67-5.55,9.15Z"/>
  </g>
</svg>