<?xml version="1.0" encoding="UTF-8"?>
<svg id="_레이어_2" data-name="레이어 2" xmlns="http://www.w3.org/2000/svg" viewBox="0 0 12 15">

  <g id="_레이어_2-2" data-name="레이어 2">
    <path d="M6,3c-.42,0-.77-.15-1.07-.44-.3-.29-.45-.65-.45-1.06s.15-.77.45-1.06c.3-.29.65-.44,1.07-.44s.77.15,1.07.44c.3.29.44.65.44,1.06s-.15.77-.44,1.06c-.3.29-.65.44-1.07.44ZM4.48,15c-.21,0-.39-.07-.54-.22-.15-.14-.22-.32-.22-.53V5.08c-1.01-.26-1.84-.78-2.49-1.57C.58,2.73.18,1.84.01.84c-.04-.23.02-.42.18-.59.16-.17.36-.25.62-.25.18,0,.33.06.46.19.13.12.21.28.24.45.14.89.53,1.63,1.17,2.22.64.59,1.43.89,2.37.89h1.89c.38,0,.73.07,1.06.21s.63.34.89.6l2.9,2.87c.14.14.21.31.21.52s-.07.39-.21.53c-.14.14-.32.21-.53.21s-.39-.07-.53-.21l-2.46-2.44v8.21c0,.21-.07.39-.22.53-.15.14-.33.22-.54.22s-.39-.07-.54-.22c-.15-.14-.22-.32-.22-.53v-3.75h-1.52v3.75c0,.21-.07.39-.22.53-.15.14-.33.22-.54.22Z"/>
  </g>
</svg>