<?xml version="1.0" encoding="UTF-8"?>
<svg id="_레이어_2" data-name="레이어 2" xmlns="http://www.w3.org/2000/svg" viewBox="0 0 29.73 17.72">

  <g id="_레이어_5" data-name="레이어 5">
    <g>
      <circle cx="13.7" cy="9.17" r="2.63"/>
      <path d="M13.7.62c-2.25,0-4.28.87-5.81,2.29-.49-1.68-2.02-2.91-3.86-2.91C1.81,0,0,1.81,0,4.03s1.81,4.03,4.03,4.03c.43,0,.84-.09,1.23-.21-.07.43-.11.86-.11,1.31,0,4.72,3.83,8.55,8.55,8.55s8.55-3.83,8.55-8.55c0-.77-.11-1.51-.3-2.22l1.29-.75h6.5V.62H13.7ZM4.03,5.04c-.56,0-1.01-.45-1.01-1.01s.45-1.01,1.01-1.01,1.01.45,1.01,1.01-.45,1.01-1.01,1.01ZM13.7,13.8c-2.56,0-4.63-2.08-4.63-4.63s2.08-4.63,4.63-4.63,4.63,2.08,4.63,4.63-2.08,4.63-4.63,4.63Z"/>
    </g>
  </g>
</svg>