<?xml version="1.0" encoding="UTF-8"?>
<svg id="_레이어_2" data-name="레이어 2" xmlns="http://www.w3.org/2000/svg" viewBox="0 0 12.25 14">

  <g id="_레이어_2-2" data-name="레이어 2">
    <path d="M5.25,1.75h-1.75V0h1.75v1.75ZM8.75,0h-1.75v1.75h1.75V0ZM3.5,8.75h1.75v-1.75h-1.75v1.75ZM12.25,5.25v-1.75h-1.75v1.75h1.75ZM12.25,8.75v-1.75h-1.75v1.75h1.75ZM7,8.75h1.75v-1.75h-1.75v1.75ZM12.25,0h-1.75v1.75h1.75V0ZM7,3.5v-1.75h-1.75v1.75h1.75ZM1.75,5.25v-1.75h1.75v-1.75h-1.75V0H0v14h1.75v-7h1.75v-1.75h-1.75ZM8.75,7h1.75v-1.75h-1.75v1.75ZM5.25,5.25v1.75h1.75v-1.75h-1.75ZM3.5,3.5v1.75h1.75v-1.75h-1.75ZM7,5.25h1.75v-1.75h-1.75v1.75ZM8.75,1.75v1.75h1.75v-1.75h-1.75Z"/>
  </g>
</svg>