<?xml version="1.0" encoding="UTF-8"?>
<svg id="_레이어_2" data-name="레이어 2" xmlns="http://www.w3.org/2000/svg" viewBox="0 0 11 14">

  <g id="_레이어_2-2" data-name="레이어 2">
    <path d="M5.5,9.1c.38,0,.7-.14.97-.41.27-.27.4-.6.4-.99s-.13-.71-.4-.99c-.27-.27-.59-.41-.97-.41s-.7.14-.97.41c-.27.27-.4.6-.4.99s.13.71.4.99c.27.27.59.41.97.41ZM1.38,14c-.38,0-.7-.14-.97-.41-.27-.27-.4-.6-.4-.99V1.4c0-.38.13-.71.4-.99.27-.27.59-.41.97-.41h5.55c.19,0,.39.04.58.13.19.09.35.21.47.38l2.7,3.31c.1.13.18.27.24.42.06.15.09.31.09.47v7.58l-3.13-3.18c.13-.2.22-.41.28-.65.06-.23.09-.48.09-.75,0-.77-.27-1.43-.81-1.98-.54-.55-1.19-.82-1.94-.82s-1.4.27-1.94.82c-.54.55-.81,1.21-.81,1.98s.27,1.43.81,1.98c.54.55,1.19.82,1.94.82.26,0,.51-.03.74-.1.23-.06.44-.16.64-.29l3.57,3.61c-.13.09-.25.16-.38.21-.13.05-.28.07-.45.07H1.38Z"/>
  </g>
</svg>