<?xml version="1.0" encoding="UTF-8"?>
<svg id="_레이어_2" data-name="레이어 2" xmlns="http://www.w3.org/2000/svg" viewBox="0 0 17 15">

  <g id="_레이어_2-2" data-name="레이어 2">
    <path d="M2.96,15c-.26,0-.48-.09-.66-.26-.18-.17-.26-.39-.26-.64v-6.3H.47c-.22,0-.36-.1-.44-.29-.08-.19-.03-.36.14-.49L7.88.25c.17-.16.38-.25.62-.25s.45.08.62.25l7.7,6.77c.17.13.22.3.14.49-.08.19-.22.29-.44.29h-1.57v6.3c0,.25-.09.47-.27.64-.18.17-.4.26-.66.26s-.48-.09-.66-.26c-.18-.17-.27-.39-.27-.64v-.9H3.89v.9c0,.25-.09.47-.26.64-.18.17-.4.26-.66.26ZM6.15,4.21h4.7l-2.35-2.07-2.35,2.07ZM3.89,7.8h9.23v-1.62l-.21-.18H4.1l-.21.18v1.62ZM3.89,11.4h9.23v-1.8H3.89v1.8Z"/>
  </g>
</svg>